<?xml version="1.0" encoding="UTF-8"?>
<mxfile host="app.diagrams.net">
  <diagram name="Page-1" id="i3pFX0tJ0a5QNmmtCBTG">
    <mxGraphModel dx="1425" dy="774" grid="1" gridSize="10" guides="1" tooltips="1" connect="1" arrows="1" fold="1" page="1" pageScale="1" pageFormat="A4" pageScaleActual="1" pageScaleDpi="96" math="0" shadow="0">
      <root>
        <mxCell id="0" />
        <mxCell id="1" parent="0" />
        <mxCell id="jcBVcC4zp3XpyJuLpZtY-7" value="" style="group" vertex="1" connectable="0" connectEdges="0" collapsible="0" cliptoprint="1" gradientcolor="none" gradientrotation="90" fillcolor="#f5f5f5" strokewidth="1" isShadow="0">
          <mxGeometry x="130" y="20" width="1160" height="620" as="geometry" />
        </mxCell>
        <mxCell id="jcBVcC4zp3XpyJuLpZtY-8" value="" style="group" vertex="1" connectable="0" connectEdges="0" collapsible="0" cliptoprint="1" gradientcolor="none" gradientrotation="90" fillcolor="#ffffff" strokewidth="1" isShadow="0">
          <mxGeometry x="240" y="160" width="940" height="390" as="geometry" />
        </mxCell>
        <mxCell id="jcBVcC4zp3XpyJuLpZtY-9" style="group" vertex="1" connectable="0" connectEdges="0" collapsible="0" cliptoprint="1" gradientcolor="none" gradientrotation="90" fillcolor="#ffffff" strokewidth="1" isShadow="0">
          <mxGeometry x="320" y="280" width="780" height="150" as="geometry" />
        </mxCell>
        <mxCell id="jcBVcC4zp3XpyJuLpZtY-10" style="group" vertex="1" connectable="0" connectEdges="0" collapsible="0" cliptoprint="1" gradientcolor="none" gradientrotation="90" fillcolor="#ffffff" strokewidth="1" isShadow="0">
          <mxGeometry x="400" y="400" width="620" height="90" as="geometry" />
        </mxCell>
        <mxCell id="jcBVcC4zp3XpyJuLpZtY-11" style="group" vertex="1" connectable="0" connectEdges="0" collapsible="0" cliptoprint="1" gradientcolor="none" gradientrotation="90" fillcolor="#ffffff" strokewidth="1" isShadow="0">
          <mxGeometry x="480" y="500" width="460" height="30" as="geometry" />
        </mxCell>
        <mxCell id="jcBVcC4zp3XpyJuLpZtY-12" value="" style="group" vertex="1" connectable="0" connectEdges="0" collapsible="0" cliptoprint="1" gradientcolor="none" gradientrotation="90" fillcolor="#f5f5f5" strokewidth="1" isShadow="0">
          <mxGeometry x="60" y="0" width="1160" height="140" as="geometry" />
        </mxCell>
        <mxCell id="jcBVcC4zp3XpyJuLpZtY-13" style="shape=datastore;whiteSpace=wrap;html=1;" vertex="1" connectable="0" connectEdges="0" resizable="0" rotatable="0" isShadow="0">
          <mxGeometry x="180" y="70" width="80" height="40" as="geometry" />
        </mxCell>
        <mxCell id="jcBVcC4zp3XpyJuLpZtY-14" value="" style="rounded=0;whiteSpace=wrap;html=1;" vertex="1" connectable="0" connectEdges="0" resizable="0" rotatable="0" points="[]" isShadow="0">
          <mxGeometry x="0" y="100" width="240" height="40" as="geometry" />
        </mxCell>
        <mxCell id="jcBVcC4zp3XpyJuLpZtY-15" style="rounded=0;whiteSpace=wrap;html=1;" vertex="1" connectable="0" connectEdges="0" resizable="0" rotatable="0" points="[]" isShadow="0">
          <mxGeometry x="180" y="100" width="60" height="40" as="geometry" />
        </mxCell>
        <mxCell id="jcBVcC4zp3XpyJuLpZtY-16" value="" style="rounded=0;whiteSpace=wrap;html=1;" vertex="1" connectable="0" connectEdges="0" resizable="0" rotatable="0" points="[]" isShadow="0">
          <mxGeometry x="240" y="100" width="60" height="40" as="geometry" />
        </mxCell>
        <mxCell id="jcBVcC4zp3XpyJuLpZtY-17" style="rounded=0;whiteSpace=wrap;html=1;" vertex="1" connectable="0" connectEdges="0" resizable="0" rotatable="0" points="[]" isShadow="0">
          <mxGeometry x="300" y="100" width="60" height="40" as="geometry" />
        </mxCell>
        <mxCell id="jcBVcC4zp3XpyJuLpZtY-18" style="rounded=0;whiteSpace=wrap;html=1;" vertex="1" connectable="0" connectEdges="0" resizable="0" rotatable="0" points="[]" isShadow="0">
          <mxGeometry x="360" y="100" width="60" height="40" as="geometry" />
        </mxCell>
        <mxCell id="jcBVcC4zp3XpyJuLpZtY-19" style="rounded=0;whiteSpace=wrap;html=1;" vertex="1" connectable="0" connectEdges="0" resizable="0" rotatable="0" points="[]" isShadow="0">
          <mxGeometry x="420" y="100" width="60" height="40" as="geometry" />
        </mxCell>
        <mxCell id="jcBVcC4zp3XpyJuLpZtY-20" value="Aladdin Broker Contact" style="text;html=1;strokeColor=none;fillColor=none;align=center;verticalAlign=middle;whiteSpace=wrap;rounded=0;" vertex="1" connectable="0" connectEdges="0" resizable="0" rotatable="0" points="[]" isShadow="0">
          <mxGeometry x="40" y="100" width="140" height="40" as="geometry" />
        </mxCell>
        <mxCell id="jcBVcC4zp3XpyJuLpZtY-21" style="group" vertex="1" connectable="0" connectEdges="0" collapsible="0" cliptoprint="1" gradientcolor="none" gradientrotation="90" fillcolor="#ffffff" strokewidth="1" isShadow="0">
          <mxGeometry x="0" y="140" width="240" height="40" as="geometry" />
        </mxCell>
        <mxCell id="jcBVcC4zp3XpyJuLpZtY-22" style="rounded=0;whiteSpace=wrap;html=1;" vertex="1" connectable="0" connectEdges="0" resizable="0" rotatable="0" points="[]" isShadow="0">
          <mxGeometry x="0" y="140" width="240" height="40" as="geometry" />
        </mxCell>
        <mxCell id="jcBVcC4zp3XpyJuLpZtY-23" style="group" vertex="1" connectable="0" connectEdges="0" collapsible="0" cliptoprint="1" gradientcolor="none" gradientrotation="90" fillcolor="#ffffff" strokewidth="1" isShadow="0">
          <mxGeometry x="240" y="140" width="60" height="40" as="geometry" />
        </mxCell>
        <mxCell id="jcBVcC4zp3XpyJuLpZtY-24" style="rounded=0;whiteSpace=wrap;html=1;" vertex="1" connectable="0" connectEdges="0" resizable="0" rotatable="0" points="[]" isShadow="0">
          <mxGeometry x="240" y="140" width="60" height="40" as="geometry" />
        </mxCell>
        <mxCell id="jcBVcC4zp3XpyJuLpZtY-25" style="group" vertex="1" connectable="0" connectEdges="0" collapsible="0" cliptoprint="1" gradientcolor="none" gradientrotation="90" fillcolor="#ffffff" strokewidth="1" isShadow="0">
          <mxGeometry x="300" y="140" width="60" height="40" as="geometry" />
        </mxCell>
        <mxCell id="jcBVcC4zp3XpyJuLpZtY-26" style="rounded=0;whiteSpace=wrap;html=1;" vertex="1" connectable="0" connectEdges="0" resizable="0" rotatable="0" points="[]" isShadow="0">
          <mxGeometry x="300" y="140" width="60" height="40" as="geometry" />
        </mxCell>
        <mxCell id="jcBVcC4zp3XpyJuLpZtY-27" style="group" vertex="1" connectable="0" connectEdges="0" collapsible="0" cliptoprint="1" gradientcolor="none" gradientrotation="90" fillcolor="#ffffff" strokewidth="1" isShadow="0">
          <mxGeometry x="360" y="140" width="60" height="40" as="geometry" />
        </mxCell>
        <mxCell id="jcBVcC4zp3XpyJuLpZtY-28" style="rounded=0;whiteSpace=wrap;html=1;" vertex="1" connectable="0" connectEdges="0" resizable="0" rotatable="0" points="[]" isShadow="0">
          <mxGeometry x="360" y="140" width="60" height="40" as="geometry" />
        </mxCell>
    <mxCell id="jcBVcC4zp3XpyJuLpZtY-30" value="Aladdin Corporate Action" style="text;html=1;strokeColor=none;fillColor=none;align=center;verticalAlign=middle;whiteSpace=wrap;rounded=0;" vertex="1" connectable="0" connectEdges="0" resizable="0" rotatable="0" points="[]" isShadow="0">
      <mxGeometry x="40" y="140" width="140" height="40" as="geometry" />
    </mxCell>
    <mxCell id="jcBVcC4zp3XpyJuLpZtY-31" style="group" vertex="1" connectable="0" connectEdges="0" collapsible="0" cliptoprint="1" gradientcolor="none" gradientrotation="90" fillcolor="#ffffff" strokewidth="1" isShadow="0">
      <mxGeometry x="0" y="180" width="240" height="40" as="geometry" />
    </mxCell>
    <mxCell id="jcBVcC4zp3XpyJuLpZtY-32" style="rounded=0;whiteSpace=wrap;html=1;" vertex="1" connectable="0" connectEdges="0" resizable="0" rotatable="0" points="[]" isShadow="0">
      <mxGeometry x="0" y="180" width="240" height="40" as="geometry" />
    </mxCell>
    <mxCell id="jcBVcC4zp3XpyJuLpZtY-33" style="group" vertex="1" connectable="0" connectEdges="0" collapsible="0" cliptoprint="1" gradientcolor="none" gradientrotation="90" fillcolor="#ffffff" strokewidth="1" isShadow="0">
      <mxGeometry x="240" y="180" width="60" height="40" as="geometry" />
    </mxCell>
    <mxCell id="jcBVcC4zp3XpyJuLpZtY-34" style="rounded=0;whiteSpace=wrap;html=1;" vertex="1" connectable="0" connectEdges="0" resizable="0" rotatable="0" points="[]" isShadow="0">
      <mxGeometry x="240" y="180" width="60" height="40" as="geometry" />
    </mxCell>
    <mxCell id="jcBVcC4zp3XpyJuLpZtY-35" style="group" vertex="1" connectable="0" connectEdges="0" collapsible="0" cliptoprint="1" gradientcolor="none" gradientrotation="90" fillcolor="#ffffff" strokewidth="1" isShadow="0">
      <mxGeometry x="300" y="180" width="60" height="40" as="geometry" />
    </mxCell>
    <mxCell id="jcBVcC4zp3XpyJuLpZtY-36" style="rounded=0;whiteSpace=wrap;html=1;" vertex="1" connectable="0" connectEdges="0" resizable="0" rotatable="0" points="[]" isShadow="0">
      <mxGeometry x="300" y="180" width="60" height="40" as="geometry" />
    </mxCell>
    <mxCell id="jcBVcC4zp3XpyJuLpZtY-37" style="group" vertex="1" connectable="0" connectEdges="0" collapsible="0" cliptoprint="1" gradientcolor="none" gradientrotation="90" fillcolor="#ffffff" strokewidth="1" isShadow="0">
      <mxGeometry x="360" y="180" width="60" height="40" as="geometry" />
    </mxCell>
    <mxCell id="jcBVcC4zp3XpyJuLpZtY-38" style="rounded=0;whiteSpace=wrap;html=1;" vertex="1" connectable="0" connectEdges="0" resizable="0" rotatable="0" points="[]" isShadow="0">
      <mxGeometry x="360" y="180" width="60" height="40" as="geometry" />
    </mxCell>
    <mxCell id="jcBVcC4zp3XpyJuLpZtY-39" style="group" vertex="1" connectable="0" connectEdges="0" collapsible="0" cliptoprint="1" gradientcolor="none" gradientrotation="90" fillcolor="#ffffff" strokewidth="1" isShadow="0">
      <mxGeometry x="420" y="180" width="60" height="40" as="geometry" />
    </mxCell>
    <mxCell id="jcBVcC4zp3XpyJuLpZtY-40" value="Aladdin Corporate Action Entitlement" style="text;html=1;strokeColor=none;fillColor=none;align=center;verticalAlign=middle;whiteSpace=wrap;rounded=0;" vertex="1" connectable="0" connectEdges="0" resizable="0" rotatable="0" points="[]" isShadow="0">
      <mxGeometry x="40" y="180" width="140" height="40" as="geometry" />
    </mxCell>
    <mxCell id="jcBVcC4zp3XpyJuLpZtY-41" style="group" vertex="1" connectable="0" connectEdges="0" collapsible="0" cliptoprint="1" gradientcolor="none" gradientrotation="90" fillcolor="#ffffff" strokewidth="1" isShadow="0">
      <mxGeometry x="0" y="220" width="240" height="40" as="geometry" />
    </mxCell>
    <mxCell id="jcBVcC4zp3XpyJuLpZtY-42" style="rounded=0;whiteSpace=wrap;html=1;" vertex="1" connectable="0" connectEdges="0" resizable="0" rotatable="0" points="[]" isShadow="0">
      <mxGeometry x="0" y="220" width="240" height="40" as="geometry" />
    </mxCell>
    <mxCell id="jcBVcC4zp3XpyJuLpZtY-43" style="group" vertex="1" connectable="0" connectEdges="0" collapsible="0" cliptoprint="1" gradientcolor="none" gradientrotation="90" fillcolor="#ffffff" strokewidth="1" isShadow="0">
      <mxGeometry x="240" y="220" width="60" height="40" as="geometry" />
    </mxCell>
    <mxCell id="jcBVcC4zp3XpyJuLpZtY-44" style="rounded=0;whiteSpace=wrap;html=1;" vertex="1" connectable="0" connectEdges="0" resizable="0" rotatable="0" points="[]" isShadow="0">
      <mxGeometry x="240" y="220" width="60" height="40" as="geometry" />
    </mxCell>
    <mxCell id="jcBVcC4zp3XpyJuLpZtY-45" style="group" vertex="1" connectable="0" connectEdges="0" collapsible="0" cliptoprint="1" gradientcolor="none" gradientrotation="90" fillcolor="#ffffff" strokewidth="1" isShadow="0">
      <mxGeometry x="300" y="220" width="60" height="40" as="geometry" />
    </mxCell>
    <mxCell id="jcBVcC4zp3XpyJuLpZtY-46" style="rounded=0;whiteSpace=wrap;html=1;" vertex="1" connectable="0" connectEdges="0" resizable="0" rotatable="0" points="[]" isShadow="0">
      <mxGeometry x="300" y="220" width="60" height="40" as="geometry" />
    </mxCell>
    <mxCell id="jcBVcC4zp3XpyJuLpZtY-47" style="group" vertex="1" connectable="0" connectEdges="0" collapsible="0" cliptoprint="1" gradientcolor="none" gradientrotation="90" fillcolor="#ffffff" strokewidth="1" isShadow="0">
      <mxGeometry x="360" y="220" width="60" height="40" as="geometry" />
    </mxCell>
    <mxCell id="jcBVcC4zp3XpyJuLpZtY-48" style="rounded=0;whiteSpace=wrap;html=1;" vertex="1" connectable="0" connectEdges="0" resizable="0" rotatable="0" points="[]" isShadow="0">
      <mxGeometry x="360" y="220" width="60" height="40" as="geometry" />
    </mxCell>
    <mxCell id="jcBVcC4zp3XpyJuLpZtY-49" style="group" vertex="1" connectable="0" connectEdges="0" collapsible="0" cliptoprint="1" gradientcolor="none" gradientrotation="90" fillcolor="#ffffff" strokewidth="1" isShadow="0">
      <mxGeometry x="420" y="220" width="60" height="40" as="geometry" />
    </mxCell>
    <mxCell id="jcBVcC4zp3XpyJuLpZtY-50" value="External System" style="text;html=1;strokeColor=none;fillColor=none;align=center;verticalAlign=middle;whiteSpace=wrap;rounded=0;" vertex="1" connectable="0" connectEdges="0" resizable="0" rotatable="0" points="[]" isShadow="0">
      <mxGeometry x="40" y="220" width="140" height="40" as="geometry" />
    </mxCell>
    <mxCell id="jcBVcC4zp3XpyJuLpZtY-51" style="group" vertex="1" connectable="0" connectEdges="0" collapsible="0" cliptoprint="1" gradientcolor="none" gradientrotation="90" fillcolor="#ffffff" strokewidth="1" isShadow="0">
      <mxGeometry x="0" y="260" width="240" height="40" as="geometry" />
    </mxCell>
    <mxCell id="jcBVcC4zp3XpyJuLpZtY-52" style="rounded=0;whiteSpace=wrap;html=1;" vertex="1" connectable="0" connectEdges="0" resizable="0" rotatable="0" points="[]" isShadow="0">
      <mxGeometry x="0" y="260" width="240" height="40" as="geometry" />
    </mxCell>
    <mxCell id="jcBVcC4zp3XpyJuLpZtY-53" style="group" vertex="1" connectable="0" connectEdges="0" collapsible="0" cliptoprint="1" gradientcolor="none" gradientrotation="90" fillcolor="#ffffff" strokewidth="1" isShadow="0">
      <mxGeometry x="240" y="260" width="60" height="40" as="geometry" />
    </mxCell>
    <mxCell id="jcBVcC4zp3XpyJuLpZtY-54" style="rounded=0;whiteSpace=wrap;html=1;" vertex="1" connectable="0" connectEdges="0" resizable="0" rotatable="0" points="[]" isShadow="0">
      <mxGeometry x="240" y="260" width="60" height="40" as="geometry" />
    </mxCell>

      <mxCell id="jcBVcC4zp3XpyJuLpZtY-57" style="group" vertex="1" connectable="0" connectEdges="0" collapsible="0" cliptoprint="1" gradientcolor="none" gradientrotation="90" fillcolor="#ffffff" strokewidth="1" isShadow="0">
        <mxGeometry x="360" y="260" width="60" height="40" as="geometry" />
      </mxCell>
      <mxCell id="jcBVcC4zp3XpyJuLpZtY-58" style="rounded=0;whiteSpace=wrap;html=1;" vertex="1" connectable="0" connectEdges="0" resizable="0" rotatable="0" points="[]" isShadow="0">
        <mxGeometry x="360" y="260" width="60" height="40" as="geometry" />
      </mxCell>
      <mxCell id="jcBVcC4zp3XpyJuLpZtY-59" style="group" vertex="1" connectable="0" connectEdges="0" collapsible="0" cliptoprint="1" gradientcolor="none" gradientrotation="90" fillcolor="#ffffff" strokewidth="1" isShadow="0">
        <mxGeometry x="420" y="260" width="60" height="40" as="geometry" />
      </mxCell>
      <mxCell id="jcBVcC4zp3XpyJuLpZtY-60" value="Aladdin Portfolio" style="text;html=1;strokeColor=none;fillColor=none;align=center;verticalAlign=middle;whiteSpace=wrap;rounded=0;" vertex="1" connectable="0" connectEdges="0" resizable="0" rotatable="0" points="[]" isShadow="0">
        <mxGeometry x="40" y="260" width="140" height="40" as="geometry" />
      </mxCell>
      <mxCell id="jcBVcC4zp3XpyJuLpZtY-61" style="group" vertex="1" connectable="0" connectEdges="0" collapsible="0" cliptoprint="1" gradientcolor="none" gradientrotation="90" fillcolor="#ffffff" strokewidth="1" isShadow="0">
        <mxGeometry x="0" y="300" width="240" height="40" as="geometry" />
      </mxCell>
      <mxCell id="jcBVcC4zp3XpyJuLpZtY-62" style="rounded=0;whiteSpace=wrap;html=1;" vertex="1" connectable="0" connectEdges="0" resizable="0" rotatable="0" points="[]" isShadow="0">
        <mxGeometry x="0" y="300" width="240" height="40" as="geometry" />
      </mxCell>
      <mxCell id="jcBVcC4zp3XpyJuLpZtY-63" style="group" vertex="1" connectable="0" connectEdges="0" collapsible="0" cliptoprint="1" gradientcolor="none" gradientrotation="90" fillcolor="#ffffff" strokewidth="1" isShadow="0">
        <mxGeometry x="240" y="300" width="60" height="40" as="geometry" />
      </mxCell>
      <mxCell id="jcBVcC4zp3XpyJuLpZtY-64" style="rounded=0;whiteSpace=wrap;html=1;" vertex="1" connectable="0" connectEdges="0" resizable="0" rotatable="0" points="[]" isShadow="0">
        <mxGeometry x="240" y="300" width="60" height="40" as="geometry" />
      </mxCell>
      <mxCell id="jcBVcC4zp3XpyJuLpZtY-65" style="group" vertex="1" connectable="0" connectEdges="0" collapsible="0" cliptoprint="1" gradientcolor="none" gradientrotation="90" fillcolor="#ffffff" strokewidth="1" isShadow="0">
        <mxGeometry x="300" y="300" width="60" height="40" as="geometry" />
      </mxCell>
      <mxCell id="jcBVcC4zp3XpyJuLpZtY-66" style="rounded=0;whiteSpace=wrap;html=1;" vertex="1" connectable="0" connectEdges="0" resizable="0" rotatable="0" points="[]" isShadow="0">
        <mxGeometry x="300" y="300" width="60" height="40" as="geometry" />
      </mxCell>
      <mxCell id="jcBVcC4zp3XpyJuLpZtY-67" style="group" vertex="1" connectable="0" connectEdges="0" collapsible="0" cliptoprint="1" gradientcolor="none" gradientrotation="90" fillcolor="#ffffff" strokewidth="1" isShadow="0">
        <mxGeometry x="360" y="300" width="60" height="40" as="geometry" />
      </mxCell>
      <mxCell id="jcBVcC4zp3XpyJuLpZtY-68" style="rounded=0;whiteSpace=wrap;html=1;" vertex="1" connectable="0" connectEdges="0" resizable="0" rotatable="0" points="[]" isShadow="0">
        <mxGeometry x="360" y="300" width="60" height="40" as="geometry" />
      </mxCell>
      <mxCell id="jcBVcC4zp3XpyJuLpZtY-69" style="group" vertex="1" connectable="0" connectEdges="0" collapsible="0" cliptoprint="1" gradientcolor="none" gradientrotation="90" fillcolor="#f5f5f5" strokewidth="1" isShadow="0">
        <mxGeometry x="420" y="300" width="60" height="40" as="geometry" />
      </mxCell>
      <mxCell id="jcBVcC4zp3XpyJuLpZtY-70" style="group" vertex="1" connectable="0" connectEdges="0" collapsible="0" cliptoprint="1" gradientcolor="none" gradientrotation="90" strokewidth="1" isShadow="0">
        <mxGeometry x="0" y="340" width="240" height="40" as="geometry" />
      </mxCell>
      <mxCell id="jcBVcC4zp3XpyJuLpZtY-71" style="rounded=0;whiteSpace=wrap;html=1;" vertex="1" connectable="0" connectEdges="0" strokewidth="1" isShadow="0">
        <mxGeometry x="0" y="340" width="240" height="40" as="geometry" />
      </mxCell>
      <mxCell id="jcBVcC4zp3XpyJuLpZtY-72" style="group" vertex="1" connectable="0" connectEdges="0" collapsible="0" cliptoprint="1" strokewidth="1" isShadow="0">
        <mxGeometry x="240" y="340" width="60" height="40" as="geometry" />
      </mxCell>
      <mxCell id="jcBVcC4zp3XpyJuLpZtY-73" style="rounded=0;whiteSpace=wrap;html=1;" vertex="1" connectable="0" connectEdges="0" strokewidth="1" isShadow="0">
        <mxGeometry x="240" y="340" width="60" height="40" as="geometry" />
      </mxCell>
      <mxCell id="jcBVcC4zp3XpyJuLpZtY-74" style="group" vertex="1" connectable="0" connectEdges="0" collapsible="0" cliptoprint="1" strokewidth="1" isShadow="0">
        <mxGeometry x="300" y="340" width="60" height="40" as="geometry" />
      </mxCell>
      <mxCell id="jcBVcC4zp3XpyJuLpZtY-75" style="rounded=0;whiteSpace=wrap;html=1;" vertex="1" connectable="0" connectEdges="0" strokewidth="1" isShadow="0">
        <mxGeometry x="300" y="340" width="60" height="40" as="geometry" />
      </mxCell>
      <mxCell id="jcBVcC4zp3XpyJuLpZtY-76" style="group" vertex="1" connectable="0" connectEdges="0" collapsible="0" cliptoprint="1" strokewidth="1" isShadow="0">
        <mxGeometry x="360" y="340" width="60" height="40" as="geometry" />
      </mxCell>
      <mxCell id="jcBVcC4zp3XpyJuLpZtY-77" style="rounded=0;whiteSpace=wrap;html=1;" vertex="1" connectable="0" connectEdges="0" strokewidth="1" isShadow="0">
        <mxGeometry x="360" y="340" width="60" height="40" as="geometry" />
      </mxCell>
      <mxCell id="jcBVcC4zp3XpyJuLpZtY-78" style="group" vertex="1" connectable="0" connectEdges="0" collapsible="0" cliptoprint="1" strokewidth="1" isShadow="0">
        <mxGeometry x="420" y="340" width="60" height="40" as="geometry" />
      </mxCell>
      <mxCell id="jcBVcC4zp3XpyJuLpZtY-79" value="Reporting System" style="text;html=1;strokeColor=none;fillColor=none;align=center;verticalAlign=middle;whiteSpace=wrap;rounded=0;" vertex="1" connectable="0" connectEdges="0" strokewidth="1" isShadow="0">
        <mxGeometry x="40" y="340" width="140" height="40" as="geometry" />
      </mxCell>
    </root>
  </mxGraphModel>
  </diagram>
  </mxfile>